<?xml version="1.0" encoding="UTF-8" standalone="no"?>
<!DOCTYPE svg PUBLIC "-//W3C//DTD SVG 1.1//EN" "http://www.w3.org/Graphics/SVG/1.1/DTD/svg11.dtd">
<!-- Created with Vectornator (http://vectornator.io/) -->
<svg height="100%" stroke-miterlimit="10" style="fill-rule:nonzero;clip-rule:evenodd;stroke-linecap:round;stroke-linejoin:round;" version="1.1" viewBox="0 0 3370.82 2384.24" width="100%" xml:space="preserve" xmlns="http://www.w3.org/2000/svg" xmlns:vectornator="http://vectornator.io" xmlns:xlink="http://www.w3.org/1999/xlink">
<defs>
<clipPath id="TextBounds">
<rect height="122.423" width="146.664" x="1706.7" y="1057.93"/>
</clipPath>
</defs>
<g id="Layer-1" vectornator:layerName="Layer 1">
<path d="M1109.79 1232.99C1109.79 857.298 1414.35 552.743 1790.04 552.743C2165.73 552.743 2470.28 857.298 2470.28 1232.99C2470.28 1608.68 2165.73 1913.23 1790.04 1913.23C1414.35 1913.23 1109.79 1608.68 1109.79 1232.99Z" fill="none" opacity="1" stroke="#000000" stroke-linecap="butt" stroke-linejoin="round" stroke-width="10"/>
<path d="M1801.87 786.809C2042.77 786.809 2238.05 982.093 2238.05 1222.99C2238.05 1463.88 2042.77 1659.16 1801.87 1659.16" fill="none" opacity="1" stroke="#000000" stroke-linecap="butt" stroke-linejoin="round" stroke-width="4"/>
<path d="M1802.53 822.043C2024.79 822.043 2204.96 1001.22 2204.96 1222.25C2204.96 1443.28 2024.79 1622.46 1802.53 1622.46" fill="none" opacity="1" stroke="#000000" stroke-linecap="butt" stroke-linejoin="round" stroke-width="4"/>
<path d="M1750.09 1222.99C1750.09 1206.45 1763.5 1193.04 1780.04 1193.04C1796.58 1193.04 1809.99 1206.45 1809.99 1222.99C1809.99 1239.53 1796.58 1252.94 1780.04 1252.94C1763.5 1252.94 1750.09 1239.53 1750.09 1222.99Z" fill="none" opacity="1" stroke="#000000" stroke-linecap="butt" stroke-linejoin="round" stroke-width="10"/>
<path d="M1801.87 756.356C2059.58 756.356 2268.5 965.274 2268.5 1222.99C2268.5 1480.7 2059.58 1689.62 1801.87 1689.62" fill="none" opacity="1" stroke="#000000" stroke-linecap="butt" stroke-linejoin="round" stroke-width="4"/>
<path d="M1548.71 1222.99C1548.71 1095.23 1652.28 991.661 1780.04 991.661C1907.79 991.661 2011.36 1095.23 2011.36 1222.99C2011.36 1350.74 1907.79 1454.31 1780.04 1454.31C1652.28 1454.31 1548.71 1350.74 1548.71 1222.99Z" fill="none" opacity="1" stroke="#000000" stroke-linecap="butt" stroke-linejoin="round" stroke-width="10"/>
<g fill="#000000" opacity="1" stroke="none">
<path clip-path="url(#TextBounds)" d="M1721.49 1083.2L1742.09 1144.28L1762.45 1083.2L1773.34 1083.2L1747.17 1154.93L1736.87 1154.93L1710.74 1083.2L1721.49 1083.2Z"/>
<path clip-path="url(#TextBounds)" d="M1815.87 1116.06C1820.43 1116.06 1824.03 1115.15 1826.69 1113.33C1829.34 1111.5 1830.67 1108.21 1830.67 1103.46C1830.67 1098.35 1828.81 1094.87 1825.1 1093.01C1823.11 1092.04 1820.46 1091.55 1817.14 1091.55L1793.41 1091.55L1793.41 1116.06L1815.87 1116.06ZM1783.69 1083.2L1816.9 1083.2C1822.37 1083.2 1826.87 1084 1830.42 1085.59C1837.16 1088.65 1840.53 1094.3 1840.53 1102.53C1840.53 1106.83 1839.64 1110.35 1837.87 1113.08C1836.09 1115.82 1833.61 1118.01 1830.42 1119.67C1833.22 1120.81 1835.33 1122.31 1836.74 1124.16C1838.16 1126.02 1838.95 1129.03 1839.11 1133.2L1839.45 1142.82C1839.55 1145.55 1839.78 1147.59 1840.14 1148.92C1840.72 1151.2 1841.77 1152.66 1843.26 1153.32L1843.26 1154.93L1831.35 1154.93C1831.02 1154.31 1830.76 1153.51 1830.57 1152.53C1830.37 1151.56 1830.21 1149.67 1830.08 1146.87L1829.49 1134.91C1829.27 1130.22 1827.52 1127.08 1824.27 1125.48C1822.41 1124.6 1819.5 1124.16 1815.53 1124.16L1793.41 1124.16L1793.41 1154.93L1783.69 1154.93L1783.69 1083.2Z"/>
</g>
</g>
</svg>
